<svg xmlns="http://www.w3.org/2000/svg" height="48" viewBox="0 96 960 960" width="48"><path d="M444 617V197h73v420h-73Zm35.829 336Q402 953 333.477 923.295q-68.522-29.704-119.295-80.477-50.773-50.773-80.477-119.295Q104 655 104 577.364 104 494 139 420.5T239 292l51 51q-54 43-83.5 104.039-29.5 61.04-29.5 129.939 0 125.779 88.674 214.401Q354.348 880 480.179 880q126.178 0 214.5-88.621Q783 702.757 783 576.978 783 507 753.5 446 724 385 672 343l52-51q63 54 97.5 127.882Q856 493.763 856 577.25q0 77.75-29.5 146.25T746 843q-51 51-119.693 80.5T479.829 953Z"/></svg>