<svg xmlns="http://www.w3.org/2000/svg" height="48" viewBox="0 96 960 960" width="48"><path d="M689 938q-61.386 0-103.693-42.943Q543 852.113 543 791.364q0-60.75 42.307-103.557T689 645q61.386 0 104.193 42.757Q836 730.514 836 791q0 60.9-43.05 103.95Q749.9 938 689 938Zm-.235-73q30.735 0 52.485-21.515Q763 821.971 763 791.235q0-30.318-21.532-51.777Q719.936 718 689.176 718q-30.759 0-51.968 21.326Q616 760.652 616 791.118q0 30.465 21.223 52.174Q658.446 865 688.765 865ZM125 828v-73h338v73H125Zm147-321q-60.9 0-103.95-42.943Q125 421.113 125 360.364q0-60.75 42.944-103.557Q210.887 214 271.636 214q60.75 0 103.557 42.757T418 360q0 60.9-42.757 103.95Q332.486 507 272 507Zm-.235-73q30.318 0 51.777-21.515Q345 390.971 345 360.235q0-30.318-21.326-51.777Q302.348 287 271.882 287q-30.465 0-52.174 21.326Q198 329.652 198 360.118q0 30.465 21.515 52.174Q241.029 434 271.765 434ZM498 397v-73h338v73H498Z"/></svg>