<?xml version="1.0" encoding="UTF-8" standalone="no"?>
<svg
   width="512.041"
   height="502.439"
   viewBox="0 0 135.47752 132.93699"
   version="1.1"
   id="svg2"
   sodipodi:docname="fedora.svg"
   inkscape:version="1.3 (0e150ed6c4, 2023-07-21)"
   xmlns:inkscape="http://www.inkscape.org/namespaces/inkscape"
   xmlns:sodipodi="http://sodipodi.sourceforge.net/DTD/sodipodi-0.dtd"
   xmlns="http://www.w3.org/2000/svg"
   xmlns:svg="http://www.w3.org/2000/svg">
  <defs
     id="defs2" />
  <sodipodi:namedview
     id="namedview2"
     pagecolor="#505050"
     bordercolor="#ffffff"
     borderopacity="1"
     inkscape:showpageshadow="0"
     inkscape:pageopacity="0"
     inkscape:pagecheckerboard="1"
     inkscape:deskcolor="#d1d1d1"
     inkscape:zoom="1.1420517"
     inkscape:cx="260.49609"
     inkscape:cy="330.10765"
     inkscape:window-width="1444"
     inkscape:window-height="1080"
     inkscape:window-x="238"
     inkscape:window-y="0"
     inkscape:window-maximized="0"
     inkscape:current-layer="svg2" />
  <path
     id="path1"
     d="M 67.774676 0 C 30.366534 0 0.078582278 29.732127 0.012402344 66.43884 L 0 66.43884 L 0 117.86929 L 0.012402344 117.86929 C 0.029802327 126.19399 6.9146034 132.93711 15.404745 132.93711 L 67.781394 132.93711 C 105.19617 132.91331 135.47752 103.1851 135.47752 66.498268 C 135.47757 29.791555 105.1565 0.059427899 67.715248 0.059427899 L 67.774676 0 z M 81.546446 27.337867 L 81.539211 27.357504 C 92.91452 27.357504 103.65466 35.900916 103.65466 47.686496 C 103.65466 48.779698 103.66157 49.873204 103.47896 51.112644 C 103.16379 54.247969 100.24276 56.501151 97.061778 56.059112 C 93.880791 55.611908 91.721841 52.649539 92.31013 49.549948 C 92.36403 49.196188 92.383511 48.640351 92.383511 47.685463 C 92.383511 41.001893 86.808426 38.421428 81.537661 38.421428 C 76.268226 38.421428 71.518916 42.767412 71.511916 47.685463 C 71.603016 53.371795 71.511916 59.014444 71.511916 64.692177 L 81.292715 64.620864 C 88.929237 64.465705 89.014957 75.744456 81.380565 75.691506 L 71.513983 75.763336 C 71.489883 80.337282 71.550185 79.510104 71.526385 81.813613 C 71.526385 81.813613 71.609252 87.408019 71.439052 91.647122 C 70.258503 104.10107 59.448094 114.05351 46.458147 114.05351 C 32.687331 114.05351 21.344951 103.0159 21.344951 89.476711 C 21.758411 75.553733 33.077711 64.602094 47.338197 64.727834 L 55.292234 64.668923 L 55.292234 75.719928 L 47.338197 75.791758 L 47.296339 75.791758 C 39.461357 76.019128 32.744422 81.239274 32.618682 89.469993 C 32.618682 96.967496 38.795379 102.97615 46.462282 102.97615 C 54.118634 102.97615 60.246453 97.511805 60.246453 89.482913 L 60.234051 47.628102 C 60.239051 46.851215 60.26404 46.233507 60.35084 45.37656 C 61.643209 35.139438 70.978466 27.337867 81.546446 27.337867 z "
     />
</svg>
