<svg xmlns="http://www.w3.org/2000/svg" height="48" viewBox="0 96 960 960" width="48"><path d="M444 559V159h73v400h-73Zm36 284q-135 0-229.5-94.803T156 517.727q0-78.624 36.5-146.676Q229 303 295 253l51 52q-54 37-85.5 92.5T229 517.773Q229 622 302.417 696 375.833 770 480 770q103 0 177-74t74-178.068q0-64.566-30-123.249Q671 336 615 303l51-51q68 45 103 116.051 35 71.052 35 149.708Q804 653 709.5 748T480 843Zm-172.193 229Q290 1072 277 1058.52t-13-31.71q0-18.23 13.193-30.523 13.193-12.287 31-12.287 18.657 0 31.232 12.48T352 1027.19q0 18.24-12.768 31.52-12.768 13.29-31.425 13.29Zm173 0q-19.657 0-32.232-13.27T436 1026.81q0-16.81 12.768-29.81t32.425-13Q498 984 511 997.193q13 13.197 13 29.997 0 18.66-13.193 31.74-13.193 13.07-30 13.07Zm172 0q-19.657 0-32.232-13.27T608 1026.81q0-16.81 12.768-29.81t32.425-13Q670 984 683 997.193q13 13.197 13 29.997 0 18.66-13.193 31.74-13.193 13.07-30 13.07Z"/></svg>