<?xml version="1.0" encoding="UTF-8" standalone="no"?>
<svg
   height="48"
   viewBox="0 -960 960 960"
   width="48"
   version="1.1"
   id="svg1"
   sodipodi:docname="wifi-no-internet.svg"
   xml:space="preserve"
   inkscape:version="1.3.2 (091e20ef0f, 2023-11-25)"
   xmlns:inkscape="http://www.inkscape.org/namespaces/inkscape"
   xmlns:sodipodi="http://sodipodi.sourceforge.net/DTD/sodipodi-0.dtd"
   xmlns="http://www.w3.org/2000/svg"
   xmlns:svg="http://www.w3.org/2000/svg"><defs
     id="defs1"><inkscape:path-effect
       effect="powermask"
       id="path-effect7"
       is_visible="true"
       lpeversion="1"
       uri="#mask-powermask-path-effect7"
       invert="false"
       hide_mask="false"
       background="true"
       background_color="#ffffffff" /></defs><sodipodi:namedview
     id="namedview1"
     pagecolor="#505050"
     bordercolor="#ffffff"
     borderopacity="1"
     inkscape:showpageshadow="0"
     inkscape:pageopacity="0"
     inkscape:pagecheckerboard="1"
     inkscape:deskcolor="#d1d1d1"
     inkscape:zoom="11.298977"
     inkscape:cx="29.294687"
     inkscape:cy="33.144594"
     inkscape:window-width="1906"
     inkscape:window-height="973"
     inkscape:window-x="6"
     inkscape:window-y="6"
     inkscape:window-maximized="1"
     inkscape:current-layer="svg1" /><path
     d="m 480,-127 q -36,0 -63,-27 -27,-27 -27,-63 0,-36 27,-63 27,-27 63,-27 36,0 63,27 27,27 27,63 0,36 -27,63 -27,27 -63,27 z m -248,-230 -63,-63 q 70,-70 146.5,-105 76.5,-35 164.5,-35 88,0 164.5,35 76.5,35 146.5,105 l -63,63 q -61,-61 -123,-87 -62,-26 -125,-26 -63,0 -125,26 -62,26 -123,87 z M 63,-526 0,-589 q 93,-95 216.5,-153 123.5,-58 263.5,-58 140,0 263.5,58 123.5,58 216.5,153 l -63,63 Q 809,-610 704.5,-660 600,-710 480,-710 360,-710 255.5,-660 151,-610 63,-526 Z"
     id="path1"
     clip-path="none"
     mask="none" /><g
     style="fill-opacity:1;stroke-width:0.994966;stroke-dasharray:none"
     id="g1"
     transform="matrix(0.63390209,0,0,0.63390209,581.4893,19.578379)"><path
       d="m 480,-120 q -33,0 -56.5,-23.5 Q 400,-167 400,-200 q 0,-33 23.5,-56.5 23.5,-23.5 56.5,-23.5 33,0 56.5,23.5 23.5,23.5 23.5,56.5 0,33 -23.5,56.5 Q 513,-120 480,-120 Z m -80,-240 v -480 h 160 v 480 z"
       id="path1-5"
       style="fill-opacity:1;stroke-width:0.994966;stroke-dasharray:none" /></g></svg>
